<svg width="150" height="50" viewBox="0 0 150 50" fill="none" xmlns="http://www.w3.org/2000/svg">
<path d="M22.728 39.224C21.2347 39.224 19.8907 38.968 18.696 38.456C17.5013 37.9227 16.5627 37.176 15.88 36.216C15.1973 35.256 14.856 34.136 14.856 32.856H18.76C18.8453 33.816 19.2187 34.6053 19.88 35.224C20.5627 35.8427 21.512 36.152 22.728 36.152C23.9867 36.152 24.968 35.8533 25.672 35.256C26.376 34.6373 26.728 33.848 26.728 32.888C26.728 32.1413 26.504 31.5333 26.056 31.064C25.6293 30.5947 25.0853 30.232 24.424 29.976C23.784 29.72 22.888 29.4427 21.736 29.144C20.2853 28.76 19.1013 28.376 18.184 27.992C17.288 27.5867 16.52 26.968 15.88 26.136C15.24 25.304 14.92 24.1947 14.92 22.808C14.92 21.528 15.24 20.408 15.88 19.448C16.52 18.488 17.416 17.752 18.568 17.24C19.72 16.728 21.0533 16.472 22.568 16.472C24.7227 16.472 26.4827 17.016 27.848 18.104C29.2347 19.1707 30.0027 20.6427 30.152 22.52H26.12C26.056 21.7093 25.672 21.016 24.968 20.44C24.264 19.864 23.336 19.576 22.184 19.576C21.1387 19.576 20.2853 19.8427 19.624 20.376C18.9627 20.9093 18.632 21.6773 18.632 22.68C18.632 23.3627 18.8347 23.928 19.24 24.376C19.6667 24.8027 20.2 25.144 20.84 25.4C21.48 25.656 22.3547 25.9333 23.464 26.232C24.936 26.6373 26.1307 27.0427 27.048 27.448C27.9867 27.8533 28.776 28.4827 29.416 29.336C30.0773 30.168 30.408 31.288 30.408 32.696C30.408 33.8267 30.0987 34.8933 29.48 35.896C28.8827 36.8987 27.9973 37.7093 26.824 38.328C25.672 38.9253 24.3067 39.224 22.728 39.224ZM36.7605 23.96C37.3792 23.1493 38.2218 22.4667 39.2885 21.912C40.3552 21.3573 41.5605 21.08 42.9045 21.08C44.4405 21.08 45.8378 21.464 47.0965 22.232C48.3765 22.9787 49.3792 24.0347 50.1045 25.4C50.8298 26.7653 51.1925 28.3333 51.1925 30.104C51.1925 31.8747 50.8298 33.464 50.1045 34.872C49.3792 36.2587 48.3765 37.3467 47.0965 38.136C45.8378 38.904 44.4405 39.288 42.9045 39.288C41.5605 39.288 40.3658 39.0213 39.3205 38.488C38.2752 37.9333 37.4218 37.2507 36.7605 36.44V47.384H33.1125V21.368H36.7605V23.96ZM47.4805 30.104C47.4805 28.888 47.2245 27.8427 46.7125 26.968C46.2218 26.072 45.5605 25.4 44.7285 24.952C43.9178 24.4827 43.0432 24.248 42.1045 24.248C41.1872 24.248 40.3125 24.4827 39.4805 24.952C38.6698 25.4213 38.0085 26.104 37.4965 27C37.0058 27.896 36.7605 28.952 36.7605 30.168C36.7605 31.384 37.0058 32.4507 37.4965 33.368C38.0085 34.264 38.6698 34.9467 39.4805 35.416C40.3125 35.8853 41.1872 36.12 42.1045 36.12C43.0432 36.12 43.9178 35.8853 44.7285 35.416C45.5605 34.9253 46.2218 34.2213 46.7125 33.304C47.2245 32.3867 47.4805 31.32 47.4805 30.104ZM56.848 15.32V39H53.2V15.32H56.848ZM61.8935 19.032C61.2322 19.032 60.6775 18.808 60.2295 18.36C59.7815 17.912 59.5575 17.3573 59.5575 16.696C59.5575 16.0347 59.7815 15.48 60.2295 15.032C60.6775 14.584 61.2322 14.36 61.8935 14.36C62.5335 14.36 63.0775 14.584 63.5255 15.032C63.9735 15.48 64.1975 16.0347 64.1975 16.696C64.1975 17.3573 63.9735 17.912 63.5255 18.36C63.0775 18.808 62.5335 19.032 61.8935 19.032ZM63.6855 21.368V39H60.0375V21.368H63.6855ZM75.771 21.08C77.1577 21.08 78.395 21.368 79.483 21.944C80.5923 22.52 81.4563 23.3733 82.075 24.504C82.6937 25.6347 83.003 27 83.003 28.6V39H79.387V29.144C79.387 27.5653 78.9923 26.36 78.203 25.528C77.4137 24.6747 76.3363 24.248 74.971 24.248C73.6057 24.248 72.5177 24.6747 71.707 25.528C70.9177 26.36 70.523 27.5653 70.523 29.144V39H66.875V21.368H70.523V23.384C71.1203 22.6587 71.8777 22.0933 72.795 21.688C73.7337 21.2827 74.7257 21.08 75.771 21.08ZM84.8403 30.104C84.8403 28.3333 85.2029 26.7653 85.9283 25.4C86.6749 24.0347 87.6776 22.9787 88.9363 22.232C90.2163 21.464 91.6349 21.08 93.1923 21.08C94.3443 21.08 95.4749 21.336 96.5843 21.848C97.7149 22.3387 98.6109 23 99.2723 23.832V15.32H102.952V39H99.2723V36.344C98.6749 37.1973 97.8429 37.9013 96.7763 38.456C95.7309 39.0107 94.5256 39.288 93.1603 39.288C91.6243 39.288 90.2163 38.904 88.9363 38.136C87.6776 37.3467 86.6749 36.2587 85.9283 34.872C85.2029 33.464 84.8403 31.8747 84.8403 30.104ZM99.2723 30.168C99.2723 28.952 99.0163 27.896 98.5043 27C98.0136 26.104 97.3629 25.4213 96.5523 24.952C95.7416 24.4827 94.8669 24.248 93.9283 24.248C92.9896 24.248 92.1149 24.4827 91.3043 24.952C90.4936 25.4 89.8323 26.072 89.3203 26.968C88.8296 27.8427 88.5843 28.888 88.5843 30.104C88.5843 31.32 88.8296 32.3867 89.3203 33.304C89.8323 34.2213 90.4936 34.9253 91.3043 35.416C92.1363 35.8853 93.0109 36.12 93.9283 36.12C94.8669 36.12 95.7416 35.8853 96.5523 35.416C97.3629 34.9467 98.0136 34.264 98.5043 33.368C99.0163 32.4507 99.2723 31.384 99.2723 30.168ZM108 19.032C107.338 19.032 106.784 18.808 106.336 18.36C105.888 17.912 105.664 17.3573 105.664 16.696C105.664 16.0347 105.888 15.48 106.336 15.032C106.784 14.584 107.338 14.36 108 14.36C108.64 14.36 109.184 14.584 109.632 15.032C110.08 15.48 110.304 16.0347 110.304 16.696C110.304 17.3573 110.08 17.912 109.632 18.36C109.184 18.808 108.64 19.032 108 19.032ZM109.792 21.368V39H106.144V21.368H109.792ZM111.765 30.104C111.765 28.3333 112.128 26.7653 112.853 25.4C113.6 24.0347 114.603 22.9787 115.861 22.232C117.141 21.464 118.56 21.08 120.117 21.08C121.269 21.08 122.4 21.336 123.509 21.848C124.64 22.3387 125.536 23 126.197 23.832V15.32H129.877V39H126.197V36.344C125.6 37.1973 124.768 37.9013 123.701 38.456C122.656 39.0107 121.451 39.288 120.085 39.288C118.549 39.288 117.141 38.904 115.861 38.136C114.603 37.3467 113.6 36.2587 112.853 34.872C112.128 33.464 111.765 31.8747 111.765 30.104ZM126.197 30.168C126.197 28.952 125.941 27.896 125.429 27C124.939 26.104 124.288 25.4213 123.477 24.952C122.667 24.4827 121.792 24.248 120.853 24.248C119.915 24.248 119.04 24.4827 118.229 24.952C117.419 25.4 116.757 26.072 116.245 26.968C115.755 27.8427 115.509 28.888 115.509 30.104C115.509 31.32 115.755 32.3867 116.245 33.304C116.757 34.2213 117.419 34.9253 118.229 35.416C119.061 35.8853 119.936 36.12 120.853 36.12C121.792 36.12 122.667 35.8853 123.477 35.416C124.288 34.9467 124.939 34.264 125.429 33.368C125.941 32.4507 126.197 31.384 126.197 30.168Z" fill="black"/>
<rect x="132" y="34" width="5" height="5" fill="black"/>
</svg>
